# xmcd
#
# Track frame offsets:
#	150
#	21538
#	38008
#	49897
#	69302
#	89894
#	113359
#	125477
#	141022
#	157564
#	175819
#	196905
#	222591
#
# Disc length: 3260 seconds
#
# Revision: 1
# Processed by: cddbd v1.5.2PL0 Copyright (c) Steve Scherf et al.
# Submitted via: EZCDAudioConverter 8.1.0.1
#
DISCID=b20cba0d
DTITLE=Grant-Lee Phillips - The Narrows
DYEAR=2016
DGENRE=Country
TTITLE0=Tennessee Rain
TTITLE1=Smoke And Sparks
TTITLE2=Moccasin Creek
TTITLE3=Cry Cry
TTITLE4=Holy Irons
TTITLE5=Yellow Weeds
TTITLE6=Loaded Gun
TTITLE7=Rolling Pin
TTITLE8=Taking On Weight In Hot Springs
TTITLE9=Just Another River Town
TTITLE10=No Mercy In July
TTITLE11=San Andreas Fault
TTITLE12=Find My Way
EXTD=
EXTT0=
EXTT1=
EXTT2=
EXTT3=
EXTT4=
EXTT5=
EXTT6=
EXTT7=
EXTT8=
EXTT9=
EXTT10=
EXTT11=
EXTT12=
PLAYORDER=
